<?xml version="1.0" standalone="no"?>
<!DOCTYPE svg PUBLIC "-//W3C//DTD SVG 20010904//EN"
 "http://www.w3.org/TR/2001/REC-SVG-20010904/DTD/svg10.dtd">
<svg version="1.0" xmlns="http://www.w3.org/2000/svg"
 width="424.000000pt" height="402.000000pt" viewBox="0 0 424.000000 402.000000"
 preserveAspectRatio="xMidYMid meet">

<g transform="translate(0.000000,402.000000) scale(0.100000,-0.100000)"
fill="#000000" stroke="none">
<path d="M1817 3222 c-42 -46 0 -108 57 -86 9 3 16 12 16 20 0 8 5 14 10 14
25 0 0 -252 -46 -474 -14 -66 -43 -173 -64 -236 -21 -63 -35 -119 -31 -123 13
-13 28 15 59 113 64 203 113 470 115 637 2 94 0 103 -22 127 -29 31 -71 34
-94 8z"/>
<path d="M2630 3069 c-13 -6 -39 -21 -58 -36 l-33 -25 -23 21 c-46 43 -134 39
-190 -9 l-33 -29 -39 19 c-120 62 -267 -30 -289 -180 -8 -60 17 -195 49 -266
30 -66 31 -71 11 -76 -9 -2 12 -23 52 -53 121 -90 212 -229 254 -390 29 -112
30 -298 0 -408 -39 -149 -120 -282 -220 -366 -50 -42 -54 -43 -64 -25 -18 32
-98 113 -119 120 -37 11 -31 -5 18 -50 27 -24 57 -58 67 -75 l18 -31 -50 -24
c-28 -13 -48 -26 -44 -30 3 -3 28 -6 53 -6 64 0 74 -14 66 -91 -6 -48 -4 -60
6 -57 9 3 14 27 16 70 l3 66 99 7 c92 7 103 10 139 39 110 89 197 236 242 411
19 75 23 115 23 245 0 181 -20 282 -83 415 -101 214 -103 461 -4 639 37 66 50
68 59 10 9 -61 -10 -209 -45 -347 -23 -91 -25 -107 -12 -105 20 4 54 137 77
298 15 104 15 121 1 175 -12 46 -13 63 -4 74 18 21 108 61 139 61 70 0 140
-57 163 -134 8 -27 15 -51 15 -52 0 -1 -18 -24 -40 -50 -79 -96 -149 -256
-170 -390 -9 -58 -17 -75 -46 -105 -40 -41 -29 -67 12 -28 l24 22 0 -37 c0
-56 24 -40 30 20 l5 49 29 -43 c30 -44 29 -52 -8 -65 -5 -2 -6 -8 -2 -15 4 -8
14 -8 31 -2 22 9 25 5 45 -48 52 -136 63 -201 63 -352 1 -151 -10 -218 -53
-334 -20 -53 -23 -56 -39 -42 -17 16 -41 22 -41 11 0 -3 10 -19 21 -35 l22
-29 -27 -43 c-14 -24 -34 -54 -43 -67 l-17 -23 52 26 c29 15 58 24 63 20 7 -4
9 -32 7 -68 -1 -33 1 -63 6 -66 16 -8 27 52 21 108 l-7 54 79 73 c91 84 138
157 174 269 l26 80 84 47 c48 28 77 50 68 53 -7 2 -47 10 -88 18 l-73 13 -18
55 c-33 108 -87 190 -182 281 l-49 46 67 39 c144 84 252 246 262 390 6 88 -9
134 -53 173 -51 45 -116 50 -195 17 -12 -5 -19 4 -28 38 -13 50 -60 109 -103
132 -32 16 -131 18 -169 3z m-139 -56 c34 -20 35 -23 10 -54 -75 -96 -119
-289 -102 -442 5 -45 12 -91 16 -102 4 -12 -6 -6 -26 18 l-33 38 -1 207 c0
194 -1 210 -22 248 l-22 41 22 20 c51 47 107 56 158 26z m-235 -35 c14 -14 14
-20 -2 -64 -29 -83 -19 -260 22 -401 6 -23 5 -23 -95 -23 l-102 0 -29 63 c-93
199 -77 350 45 429 37 23 136 21 161 -4z m61 -85 c14 -31 17 -70 16 -198 -1
-88 -5 -171 -11 -184 -8 -22 -12 -14 -32 60 -18 64 -24 109 -24 194 0 98 12
165 29 165 3 0 13 -17 22 -37z m788 -36 c66 -66 68 -165 3 -297 -38 -79 -138
-182 -222 -230 l-59 -33 -51 28 c-28 15 -54 31 -59 35 -4 3 6 24 24 46 76 95
152 272 166 385 7 57 11 63 43 80 19 11 54 19 78 19 36 0 50 -6 77 -33z m-245
-149 c-23 -76 -96 -226 -129 -268 l-21 -25 0 26 c0 66 68 233 134 329 40 58
46 36 16 -62z"/>
<path d="M1242 2998 c-19 -19 -15 -66 7 -78 25 -13 27 -13 46 6 9 10 13 24 9
36 -5 17 -3 18 15 9 59 -32 192 -365 241 -603 11 -54 22 -70 34 -49 7 11 -54
242 -95 356 -48 137 -115 273 -150 306 -33 31 -85 39 -107 17z"/>
<path d="M1410 2251 c-25 -17 3 -33 51 -29 31 2 44 7 44 18 0 18 -71 26 -95
11z"/>
<path d="M1770 2251 c-26 -17 3 -32 56 -29 36 2 49 7 49 18 0 18 -81 26 -105
11z"/>
<path d="M1799 2150 c-49 -26 -73 -65 -73 -121 0 -146 197 -193 259 -62 35 74
3 157 -72 189 -43 19 -71 17 -114 -6z m133 -30 c49 -38 62 -128 22 -160 -13
-11 -13 -9 -4 14 15 40 13 47 -13 41 -15 -4 -28 -1 -37 10 -11 13 -10 18 4 34
17 18 17 20 -3 30 -35 19 -71 13 -103 -20 -28 -27 -30 -34 -25 -77 6 -43 5
-45 -8 -28 -18 24 -19 93 -1 125 29 52 121 69 168 31z"/>
<path d="M1329 2137 c-43 -29 -59 -60 -59 -116 0 -37 5 -49 40 -83 39 -39 42
-40 97 -36 47 4 61 10 84 36 103 115 -35 285 -162 199z m121 -12 c54 -28 74
-95 44 -145 l-15 -25 6 30 c3 17 1 37 -5 45 -6 10 -10 11 -10 3 0 -19 -40 -16
-47 3 -4 10 1 22 12 30 19 14 13 19 -25 26 -57 9 -107 -46 -96 -106 5 -29 5
-30 -9 -12 -17 23 -20 79 -4 107 14 26 68 59 97 59 13 0 36 -7 52 -15z"/>
<path d="M1507 1843 c-21 -21 25 -63 70 -63 35 0 73 29 73 55 0 21 -13 19 -35
-5 -23 -26 -53 -25 -80 0 -12 11 -25 17 -28 13z"/>
<path d="M1807 1832 c-25 -27 -21 -60 8 -74 55 -25 101 34 59 76 -21 21 -47
20 -67 -2z"/>
<path d="M1304 1830 c-14 -5 -21 -17 -21 -32 0 -21 4 -24 31 -21 28 2 28 2 6
-5 -17 -5 -21 -10 -13 -15 20 -13 53 11 53 38 0 29 -27 46 -56 35z"/>
<path d="M1540 1250 c-30 -57 -20 -173 19 -222 30 -36 36 -14 11 37 -18 37
-21 57 -17 103 3 31 8 67 12 80 9 28 -10 30 -25 2z"/>
<path d="M2564 1207 c-8 -21 8 -69 25 -75 11 -4 12 4 7 34 -9 46 -23 64 -32
41z"/>
</g>
</svg>
