<?xml version="1.0" standalone="no"?>
<!DOCTYPE svg PUBLIC "-//W3C//DTD SVG 20010904//EN"
 "http://www.w3.org/TR/2001/REC-SVG-20010904/DTD/svg10.dtd">
<svg version="1.0" xmlns="http://www.w3.org/2000/svg"
 width="565.000000pt" height="565.000000pt" viewBox="0 0 565.000000 565.000000"
 preserveAspectRatio="xMidYMid meet">
<metadata>
Created by potrace 1.14, written by Peter Selinger 2001-2017
</metadata>
<g transform="translate(0.000000,565.000000) scale(0.100000,-0.100000)"
fill="#000000" stroke="none">
<path d="M2432 4463 c-21 -8 -43 -61 -36 -88 13 -52 91 -75 116 -35 25 40 31
20 25 -87 -15 -237 -69 -526 -147 -789 -53 -177 -58 -204 -36 -204 18 0 46 66
89 210 78 257 125 529 134 766 l6 160 -33 37 c-26 30 -39 37 -69 36 -20 0 -42
-3 -49 -6z"/>
<path d="M3495 4241 c-22 -10 -55 -30 -74 -45 -19 -14 -39 -22 -45 -19 -6 4
-26 17 -45 30 -63 43 -180 26 -244 -35 -26 -24 -30 -25 -60 -13 -117 48 -189
45 -274 -12 -100 -68 -151 -176 -139 -300 9 -99 33 -200 68 -285 26 -62 28
-75 17 -89 -12 -14 -8 -20 31 -52 204 -164 327 -351 378 -574 23 -101 22 -395
-1 -489 -44 -179 -136 -348 -252 -464 -104 -104 -103 -104 -156 -37 -50 64
-123 123 -150 123 -31 0 -22 -15 51 -90 39 -39 77 -84 84 -99 l15 -27 -60 -28
c-79 -36 -77 -53 7 -58 88 -5 97 -18 88 -114 -4 -52 -3 -74 6 -79 19 -12 28
12 35 96 l7 78 41 5 c23 3 75 8 115 11 92 7 124 20 189 79 111 100 208 262
267 446 42 130 56 225 56 388 0 244 -22 356 -106 555 -86 205 -99 262 -99 462
0 151 3 178 23 245 24 75 68 169 96 205 60 77 44 -216 -28 -514 -27 -110 -24
-148 8 -113 22 25 69 217 91 371 17 115 16 165 -1 298 l-7 53 74 35 c113 54
173 48 254 -26 42 -39 85 -123 85 -166 0 -9 -24 -48 -54 -87 -114 -150 -184
-317 -226 -538 -8 -42 -22 -70 -51 -105 -21 -26 -39 -53 -39 -60 0 -20 31 -15
57 9 l23 21 0 -29 c0 -16 5 -36 10 -44 9 -13 12 -12 25 4 8 11 15 31 16 45 0
14 4 34 8 44 6 15 12 10 35 -32 l27 -51 -26 -12 c-39 -18 -28 -43 19 -43 l38
0 30 -74 c60 -153 72 -226 73 -451 0 -166 -4 -220 -19 -285 -22 -98 -65 -215
-78 -215 -5 0 -20 7 -34 16 -41 27 -49 4 -15 -46 l29 -43 -25 -41 c-14 -23
-39 -60 -55 -84 -17 -24 -28 -45 -25 -48 2 -2 34 10 72 27 81 39 85 36 85 -73
0 -61 3 -78 14 -78 22 0 30 37 28 132 l-1 87 112 113 c125 126 171 200 223
360 l28 86 80 46 c107 60 135 83 118 95 -8 4 -58 16 -113 26 -93 16 -100 19
-105 44 -15 61 -68 179 -109 243 -25 37 -81 106 -125 152 l-80 84 70 41 c166
99 300 270 346 444 8 29 14 86 14 128 0 175 -111 268 -278 233 -37 -8 -69 -10
-72 -6 -4 4 -15 28 -24 55 -24 64 -107 153 -154 167 -61 17 -172 12 -217 -9z
m-177 -81 c17 -11 32 -22 32 -25 0 -2 -18 -32 -40 -66 -87 -135 -124 -295
-117 -509 2 -80 8 -154 12 -165 4 -12 -7 -5 -29 19 l-36 39 0 271 c0 268 0
272 -25 325 l-26 54 22 23 c52 55 147 71 207 34z m-322 -42 c16 -16 16 -22 -1
-93 -24 -102 -17 -330 14 -453 12 -46 21 -85 21 -88 0 -2 -58 -4 -129 -4
l-130 0 -26 58 c-77 166 -102 317 -71 423 18 63 76 136 128 163 44 22 170 18
194 -6z m94 -138 c11 -39 12 -417 1 -465 -6 -27 -9 -21 -31 55 -20 69 -25 114
-28 241 -4 176 9 259 34 224 8 -10 19 -35 24 -55z m1047 -33 c50 -53 68 -109
59 -189 -19 -188 -170 -391 -379 -512 l-48 -27 -69 38 c-39 20 -70 42 -70 47
0 5 24 46 54 90 30 45 68 109 85 144 42 83 97 250 110 330 13 83 31 104 106
123 63 16 107 3 152 -44z m-327 -170 c-24 -80 -123 -293 -164 -353 l-26 -39 0
34 c0 74 89 290 169 411 44 67 52 49 21 -53z"/>
<path d="M1651 4144 c-24 -30 -26 -46 -10 -77 31 -59 102 -46 102 18 0 34 11
31 40 -7 84 -112 226 -481 283 -738 19 -88 29 -110 49 -110 21 0 19 19 -14
155 -79 320 -216 659 -298 737 -56 53 -120 62 -152 22z"/>
<path d="M1883 3158 c-27 -13 -30 -33 -7 -42 24 -9 107 -7 123 3 49 31 -59 67
-116 39z"/>
<path d="M2363 3160 c-27 -11 -30 -35 -7 -44 9 -3 42 -6 75 -6 45 0 61 4 66
16 3 8 1 20 -4 25 -14 14 -104 20 -130 9z"/>
<path d="M2436 3040 c-48 -15 -104 -60 -122 -98 -53 -111 13 -245 132 -272
158 -36 281 144 194 284 -39 64 -139 106 -204 86z m130 -65 c53 -35 82 -161
45 -198 -8 -8 -8 -1 -2 20 11 37 7 43 -28 43 -14 0 -33 5 -41 10 -13 8 -13 14
3 42 17 30 17 32 0 42 -41 24 -67 26 -110 5 -57 -28 -85 -74 -78 -131 4 -31 3
-38 -4 -23 -15 31 -13 102 4 141 28 66 143 94 211 49z"/>
<path d="M1819 3026 c-90 -32 -129 -87 -129 -182 0 -56 1 -58 55 -112 l55 -55
68 5 c77 6 102 18 138 69 51 73 44 157 -17 224 -28 30 -53 46 -84 54 -51 13
-41 13 -86 -3z m103 -45 c46 -18 71 -57 75 -118 l4 -58 -15 33 c-14 30 -36 44
-36 22 0 -16 -40 -11 -47 5 -3 9 3 25 13 36 24 27 7 42 -51 42 -36 0 -51 -5
-75 -28 -34 -33 -54 -85 -45 -117 5 -18 4 -20 -4 -8 -20 28 -13 115 11 145 42
54 105 71 170 46z"/>
<path d="M2147 2595 c-35 -31 -48 -31 -97 -3 -43 25 -55 21 -47 -14 8 -30 56
-58 100 -58 44 0 97 41 97 76 0 30 -17 30 -53 -1z"/>
<path d="M2405 2595 c-33 -32 -32 -68 1 -94 32 -25 61 -27 92 -5 30 21 30 73
-1 102 -30 29 -62 28 -92 -3z"/>
<path d="M1720 2580 c-24 -24 -25 -29 -3 -60 18 -27 33 -40 46 -40 14 0 57 49
57 65 0 21 -36 55 -60 55 -11 0 -29 -9 -40 -20z"/>
<path d="M2051 1819 c-40 -65 -35 -199 11 -280 43 -77 71 -56 37 29 -26 62
-28 99 -15 210 9 81 -1 94 -33 41z"/>
<path d="M3417 1774 c-20 -20 2 -108 30 -118 22 -9 26 18 11 70 -13 46 -27 62
-41 48z"/>
</g>
</svg>
