<svg xmlns="http://www.w3.org/2000/svg" viewBox="0 0 64 64"><path fill-rule="evenodd" d="M54 24v2 0c1.1 0 2 .89 2 2v24 0c0 1.1-.9 2-2 2h-8v0c-1.11 0-2-.9-2-2V28v0c0-1.11.89-2 2-2v-2 0c0-1.11.89-2 2-2l1.42-9.51v0c.04-.32.34-.54.66-.49 .25.03.45.23.48.48l1.42 9.5v0c1.1 0 2 .89 2 2Zm-6 25v0c0 .55.44 1 1 1h2v0c.55 0 1-.45 1-1v-2 0c0-.56-.45-1-1-1h-2v0c-.56 0-1 .44-1 1Zm0-8v0c0 .55.44 1 1 1h2v0c.55 0 1-.45 1-1v-2 0c0-.56-.45-1-1-1h-2v0c-.56 0-1 .44-1 1Zm3-11h-2v0c-.56 0-1 .44-1 1v2 0c0 .55.44 1 1 1h2v0c.55 0 1-.45 1-1v-2 0c0-.56-.45-1-1-1ZM8 52V20v0c0-1.11.89-2 2-2h8v0c1.1 0 2 .89 2 2v32 0c0 1.1-.9 2-2 2h-8v0c-1.11 0-2-.9-2-2Zm4-3v0c0 .55.44 1 1 1h2v0c.55 0 1-.45 1-1v-2 0c0-.56-.45-1-1-1h-2v0c-.56 0-1 .44-1 1Zm0-8v0c0 .55.44 1 1 1h2v0c.55 0 1-.45 1-1v-2 0c0-.56-.45-1-1-1h-2v0c-.56 0-1 .44-1 1Zm0-8v0c0 .55.44 1 1 1h2v0c.55 0 1-.45 1-1v-2 0c0-.56-.45-1-1-1h-2v0c-.56 0-1 .44-1 1Zm0-8v0c0 .55.44 1 1 1h2v0c.55 0 1-.45 1-1v-2 0c0-.56-.45-1-1-1h-2v0c-.56 0-1 .44-1 1Zm28 29H24v0c-1.11 0-2-.9-2-2V12v0c0-1.11.89-2 2-2h16v0c1.1 0 2 .89 2 2v40 0c0 1.1-.9 2-2 2ZM30 15v0c0-.56-.45-1-1-1h-2v0c-.56 0-1 .44-1 1v2 0c0 .55.44 1 1 1h2v0c.55 0 1-.45 1-1Zm0 8v0c0-.56-.45-1-1-1h-2v0c-.56 0-1 .44-1 1v2 0c0 .55.44 1 1 1h2v0c.55 0 1-.45 1-1Zm0 8v0c0-.56-.45-1-1-1h-2v0c-.56 0-1 .44-1 1v2 0c0 .55.44 1 1 1h2v0c.55 0 1-.45 1-1Zm0 8v0c0-.56-.45-1-1-1h-2v0c-.56 0-1 .44-1 1v2 0c0 .55.44 1 1 1h2v0c.55 0 1-.45 1-1Zm0 8v0c0-.56-.45-1-1-1h-2v0c-.56 0-1 .44-1 1v2 0c0 .55.44 1 1 1h2v0c.55 0 1-.45 1-1Zm8-32v0c0-.56-.45-1-1-1h-2v0c-.56 0-1 .44-1 1v2 0c0 .55.44 1 1 1h2v0c.55 0 1-.45 1-1Zm0 8v0c0-.56-.45-1-1-1h-2v0c-.56 0-1 .44-1 1v2 0c0 .55.44 1 1 1h2v0c.55 0 1-.45 1-1Zm0 8v0c0-.56-.45-1-1-1h-2v0c-.56 0-1 .44-1 1v2 0c0 .55.44 1 1 1h2v0c.55 0 1-.45 1-1Zm0 8v0c0-.56-.45-1-1-1h-2v0c-.56 0-1 .44-1 1v2 0c0 .55.44 1 1 1h2v0c.55 0 1-.45 1-1Zm0 8v0c0-.56-.45-1-1-1h-2v0c-.56 0-1 .44-1 1v2 0c0 .55.44 1 1 1h2v0c.55 0 1-.45 1-1Z" fill="#FFF" /></svg>