<svg xmlns="http://www.w3.org/2000/svg" viewBox="0 0 64 64"><path fill-rule="evenodd" d="M53.11 30.57l-24.59 4.99v-.001c-1.46.29-2.94.44-4.42.44l-6.06-.01v0c-1.17-.01-2.27-.55-2.97-1.48l-6.89-8.55v0c-.33-.43-.25-1.03.17-1.35 .11-.09.24-.15.38-.18l2.19-.45h-.001c.61-.13 1.24 0 1.76.35l5.49 3.26v-.001c.2.14.46.19.7.14l6.76-1.38 -9.44-10.18h0c-.37-.39-.36-1 .03-1.36 .12-.13.28-.21.45-.25l2.81-.58v0c.78-.16 1.59-.03 2.27.38l15.99 9.49 6.11-1.25c8.244-1.68 13.41.06 13.99 3 .4 2.07-.78 4.05-4.8 4.87ZM39.99 54v0c0 1.1-.9 2-2 2h-32v0c-1.11 0-2-.9-2-2 0-1.11.89-2 2-2h32v0c1.1 0 2 .89 2 2Z" fill="#FFF" /></svg>