<svg xmlns="http://www.w3.org/2000/svg" viewBox="0 0 64 64"><path fill-rule="evenodd" d="M53.79 13.63L34.84 38.26v0c-.54.69-.83 1.55-.83 2.43v9.8 -.001c-.01.48.34.89.81.98 3.27.59 8.27 1.52 8.37 1.54v0c.46.1.79.51.77.99v1 0c0 .55-.45 1-1 1H21.01v0c-.56 0-1-.45-1-1v-1 0c-.02-.48.31-.9.77-1 .1-.02 5.1-.95 8.37-1.55v0c.47-.09.81-.51.81-.99v-9.81 0c-.01-.89-.3-1.74-.83-2.44L10.18 13.56h0c-.34-.44-.26-1.07.18-1.41 .17-.14.38-.21.6-.21h41.97v0c.55 0 .99.44.99 1 -.01.22-.08.43-.21.6ZM35 29.02v0c1.65 0 3-1.35 3-3 0-1.66-1.35-3-3-3 -1.66 0-3 1.34-3 3v0c-.01 1.65 1.34 3 2.99 3 0 0 0 0 0 0Zm11.39-13H17.6v0c-.14 0-.25.11-.25.25 0 .05.01.1.05.15l2.54 3.3v0c.14.18.36.29.59.29h22.907v0c.23-.01.45-.11.59-.3l2.54-3.31v0c.08-.11.06-.27-.05-.36 -.05-.04-.1-.06-.16-.06Z" fill="#FFF" /></svg>