<svg xmlns="http://www.w3.org/2000/svg" viewBox="0 0 64 64"><path fill-rule="evenodd" d="M58.88 21.664l0 0c-1.11-.89-2.68-.89-3.79-.001v0c-2.46 1.78-5.78 1.78-8.23 0v0c-.92-.62-1.17-1.86-.56-2.78 .61-.92 1.85-1.17 2.77-.56 0 0 0 0 0 0v0c1.1.88 2.67.88 3.78 0v0c2.45-1.79 5.77-1.79 8.22-.001v0c.91.61 1.16 1.85.55 2.77 -.62.91-1.86 1.16-2.78.55 -.01-.01-.01-.01-.01-.01Zm-15.87 8.35c-6.84.19-11.16 2.41-17.33 3.45v0c-.27.04-.46.29-.41.56 0 .01 0 .02 0 .04l4.66 18.68v0c.13.53-.2 1.07-.73 1.21 -.08.01-.17.02-.25.02H26.2v0c-3.67-.01-6.87-2.5-7.76-6.06l-3.21-12.86h-.001c-.26-1.01-1.01-1.81-2-2.13 -4.51-1.54-7.3-4.73-7.3-8.97 0-6.08 5.71-10 14-10 7.99 0 14.07 3.72 23.021 3.98v0c.54 0 .97.44.97.99V28.97h-.001c-.01.54-.44.98-.98.99Zm6.07-3.68h-.001c1.1.88 2.67.88 3.78 0v0c2.45-1.79 5.77-1.79 8.22 0v-.001c.91.61 1.16 1.85.55 2.77 -.62.91-1.86 1.16-2.78.55v0c-1.11-.89-2.68-.89-3.79-.001v0c-2.46 1.78-5.78 1.78-8.23 0v0c-.92-.62-1.17-1.86-.56-2.78 .61-.92 1.85-1.17 2.77-.56Z" fill="#FFF" /></svg>