<svg xmlns="http://www.w3.org/2000/svg" viewBox="0 0 32 32"><path fill="#FFF" fill-rule="evenodd" d="M48.612 34h-.83c-1.04 8.84-5.71 12-12.79 12h-6c-8.06 0-13-4.08-13-16V16l0 0c-.01-1.11.89-2 2-2h37.99 -.01c1.1-.01 2 .89 2 2v6.26c0 8.74-3.57 11.73-9.39 11.73Zm5.38-15.5v0c0-.28-.23-.5-.5-.5h-5 -.01c-.28 0-.5.22-.5.5 0 0 0 0 0 0v11l0 0c0 .27.22.5.5.5h.11c2.52 0 5.38 0 5.38-7.74Zm6 30.48c.01 1.65-5.56 3.01-8 3.01H11.98c-2.45 0-8.02-1.37-8-3.02l-.01 0c.01-.55.45-.99 1-.99h53.98l0-.001c.54-.01.99.43 1 .98Z" transform="scale(0.5,0.5)"/></svg>