<svg xmlns="http://www.w3.org/2000/svg" viewBox="0 0 64 64"><path fill-rule="evenodd" d="M38.42 30.46c2.47 1.92 9.95 9.74 11.57 22.51v0c.12.91-.4 1.79-1.25 2.13v0c-5.35 2.03-11.04 3.01-16.75 2.87v0c-5.72.13-11.41-.84-16.75-2.88h-.001c-.86-.34-1.38-1.23-1.25-2.14 1.62-12.78 9.09-20.6 11.57-22.52h0c.36-.29.48-.79.29-1.21 -.2-.43-4.25-10.66-4.54-11.3v0c-.3-.64-.42-1.34-.36-2.04s.82-9.03.82-9.03v0c.04-.52.48-.91.99-.91h2.18v0c.55 0 1 .44 1 1v5.76 0c-.01.38.21.72.55.89v0c1.99.93 3.72 2.34 5.05 4.1h-.001c.15.22.46.27.68.11 .04-.04.08-.08.11-.12v0c1.32-1.76 3.06-3.17 5.05-4.11v0c.34-.17.55-.52.55-.9V6.9v0c0-.56.44-1.01 1-1.01 0 0 0 0 0 0h2.18v0c.51-.01.95.39.99.9 0 0 .75 8.32.82 9.02v0c.06.69-.06 1.4-.36 2.03 -.3.63-4.34 10.87-4.54 11.29h-.001c-.2.41-.08.92.28 1.2Z" fill="#FFF" /></svg>