<svg xmlns="http://www.w3.org/2000/svg" viewBox="0 0 64 64"><path fill-rule="evenodd" d="M53 38.29v1.72 0c0 1.65-1.35 3-3 3 -.01 0-.01 0-.01 0h-1.73m0 0v0c-.69 0-1.37.19-1.96.54v0c-5.62 3.18-12.48 3.28-18.19.25 -2.63-1.4-3.34-1.21-5.08 1.2l-6.53 9.03h0c-1.53 2.1-4.47 2.58-6.58 1.06 -2.11-1.53-2.59-4.47-1.07-6.58 .29-.41.65-.77 1.06-1.07l9.04-6.53c2.41-1.75 2.6-2.46 1.2-5.09v0c-3.02-5.72-2.93-12.57.26-18.19v0c.34-.6.53-1.27.54-1.96v-1.73 0c-.01-1.66 1.34-3.01 2.99-3.01 0-.01 0-.01 0-.01h1.72 0c.68-.01 1.36-.2 1.95-.55l0-.001c9.14-5.15 20.72-1.91 25.86 7.23 3.26 5.79 3.25 12.87-.02 18.66h0c-.35.59-.54 1.26-.55 1.95m-36.16 8.89c-.57-.57-3.84 1.3-5.32 2.78v0c-.7.69-.7 1.82 0 2.52 .69.69 1.82.69 2.52-.01 1.48-1.48 3.35-4.74 2.78-5.31Zm20.15-35.21l0 0c-8.3-.02-15.03 6.7-15.05 14.99 -.02 8.29 6.7 15.02 14.99 15.04 8.29.01 15.02-6.71 15.04-15 0-.01 0-.02 0-.03v0c0-8.29-6.71-15.02-15-15.02Zm0 28.03h0c-7.19.01-13.03-5.81-13.04-13 -.02-7.19 5.8-13.03 12.99-13.04 7.18-.02 13.02 5.8 13.03 12.99 0 0 0 .01 0 .01h-.001c0 7.18-5.82 13.01-13 13.01 -.01 0-.01 0-.01 0Z" fill="#FFF" /></svg>