<svg xmlns="http://www.w3.org/2000/svg" viewBox="0 0 64 64"><path fill-rule="evenodd" d="M57.26 25.49v0c-1.97 3.37-6.31 4.51-9.68 2.54 -1.23-.72-2.22-1.79-2.83-3.07v0c-1.68 3.52-5.9 5.02-9.42 3.34 -1.47-.7-2.66-1.89-3.35-3.35v0c-1.68 3.52-5.9 5.02-9.42 3.34 -1.47-.7-2.66-1.89-3.35-3.35v0c-1.68 3.52-5.91 5.02-9.43 3.34 -1.29-.62-2.36-1.6-3.07-2.83l0 0c-.89-1.6-.97-3.52-.22-5.18l4.27-9.9v0c.64-1.48 2.09-2.43 3.7-2.43h34.99v0c1.6-.01 3.06.94 3.7 2.42l4.27 9.89v-.001c.75 1.66.67 3.57-.22 5.17ZM18.49 44v0c-.28 0-.5-.23-.5-.5v-3 0c0-.28.22-.5.5-.5h27v0c.27 0 .5.22.5.5v3 0c0 .27-.23.5-.5.5Zm-5.5-13h2v0c.55 0 1 .44 1 1v12 0c-.01 1.1.89 2 1.99 2 0 0 0-.01 0-.01H45.97v0c1.1 0 2-.9 2-2v-12 0c0-.56.44-1 1-1h2v0c.55 0 1 .44 1 1v20 0c-.01 2.2-1.8 4-4.01 4 -.01-.01-.01-.01-.01-.01H15.96h-.001c-2.21 0-4-1.79-4-4 -.01-.01-.01-.01-.01-.01V31.96v0c-.01-.56.44-1.01.99-1.01 0-.001 0 0 0 0Z" fill="#000" /></svg>