<svg xmlns="http://www.w3.org/2000/svg" viewBox="0 0 64 64"><path d="M49.47 35.98h-6.63v0c-.38 0-.73.21-.9.55l-3.17 6.33v0c-.5.98-1.7 1.38-2.69.89 -.39-.2-.71-.51-.9-.9l-8.22-16.42 -3.39 6.76v0c-.85 1.69-2.58 2.76-4.48 2.76h-4.63v0c-.83-.01-1.51.66-1.51 1.49 -.01.29.08.58.24.82 6.21 9.24 16.04 15.67 18.73 15.67 2.69 0 12.52-6.43 18.73-15.68h0c.45-.7.26-1.63-.44-2.08 -.25-.17-.54-.25-.83-.25Zm-6.03-26v0c-5.02.04-9.52 3.07-11.46 7.69v0c-1.94-4.63-6.44-7.66-11.46-7.7v0c-7.05.12-12.67 5.92-12.55 12.97l-.001-.001c.01 2.61.47 5.2 1.34 7.66v0c.27.81 1.04 1.36 1.9 1.36h7.89v0c.37-.01.72-.22.89-.56l5.16-10.34v0c.49-.99 1.69-1.39 2.68-.9 .38.19.7.5.89.89l8.21 16.41 1.38-2.77v0c.84-1.7 2.57-2.77 4.47-2.77h9.89v0c.86-.01 1.62-.56 1.9-1.37v0c.87-2.47 1.32-5.06 1.34-7.67h0c.11-7.05-5.5-12.86-12.55-12.98Z" fill="#FFF" /></svg>