<svg xmlns="http://www.w3.org/2000/svg" viewBox="0 0 64 64"><path fill-rule="evenodd" d="M8 50V14v0c0-2.21 1.79-4 4-4h40v0c2.2 0 4 1.79 4 4v36 0c0 2.2-1.8 4-4 4H12v0c-2.21 0-4-1.8-4-4Zm9-35v0c0-.56-.45-1-1-1h-3v0c-.56 0-1 .44-1 1v2 0c0 .55.44 1 1 1h3v0c.55 0 1-.45 1-1Zm0 8v0c0-.56-.45-1-1-1h-3v0c-.56 0-1 .44-1 1v2 0c0 .55.44 1 1 1h3v0c.55 0 1-.45 1-1Zm0 8v0c0-.56-.45-1-1-1h-3v0c-.56 0-1 .44-1 1v2 0c0 .55.44 1 1 1h3v0c.55 0 1-.45 1-1Zm0 8v0c0-.56-.45-1-1-1h-3v0c-.56 0-1 .44-1 1v2 0c0 .55.44 1 1 1h3v0c.55 0 1-.45 1-1Zm30 10v0c0 .55.44 1 1 1h3v0c.55 0 1-.45 1-1v-2 0c0-.56-.45-1-1-1h-3v0c-.56 0-1 .44-1 1Zm0-8v0c0 .55.44 1 1 1h3v0c.55 0 1-.45 1-1v-2 0c0-.56-.45-1-1-1h-3v0c-.56 0-1 .44-1 1Zm0-8v0c0 .55.44 1 1 1h3v0c.55 0 1-.45 1-1v-2 0c0-.56-.45-1-1-1h-3v0c-.56 0-1 .44-1 1Zm0-8v0c0 .55.44 1 1 1h3v0c.55 0 1-.45 1-1v-2 0c0-.56-.45-1-1-1h-3v0c-.56 0-1 .44-1 1Zm0-8v0c0 .55.44 1 1 1h3v0c.55 0 1-.45 1-1v-2 0c0-.56-.45-1-1-1h-3v0c-.56 0-1 .44-1 1ZM21 49v0c0 .55.44 1 1 1h20v0c.55 0 1-.45 1-1V35v0c0-.56-.45-1-1-1H22v0c-.56 0-1 .44-1 1Zm0-20v0c0 .55.44 1 1 1h20v0c.55 0 1-.45 1-1V15v0c0-.56-.45-1-1-1H22v0c-.56 0-1 .44-1 1Zm-4 20v-2 0c0-.56-.45-1-1-1h-3v0c-.56 0-1 .44-1 1v2 0c0 .55.44 1 1 1h3v0c.55 0 1-.45 1-1Z" fill="#FFF" /></svg>