<svg xmlns="http://www.w3.org/2000/svg" viewBox="0 0 64 64"><path fill-rule="evenodd" d="M55 40.98c0 3.3 1 5.7 1 9v0c0 2.2-1.8 4-4 4 -3.67 0-6.34-1-10-1 -3.67 0-6.34 1-10 1 -3.67 0-6.34-1-10-1 -3.67 0-6.34 1-10 1v0c-2.21 0-4-1.8-4-4 0-3.3 1-5.7 1-9s-1-5.7-1-9 1-5.7 1-9 -1-5.7-1-9v0c0-2.21 1.79-4 4-4 3.66 0 6.33 1 10 1 3.66 0 6.33-1 10-1 3.66 0 6.33 1 10 1 3.66 0 6.33-1 10-1v0c2.2 0 4 1.79 4 4 0 3.3-1 5.7-1 9s1 5.7 1 9 -1 5.7-1 9Zm-5-24v0c0-.56-.45-1-1-1H15v0c-.56 0-1 .44-1 1v30 0c0 .55.44 1 1 1h34v0c.55 0 1-.45 1-1Zm-2.5 29h-31v0c-.28 0-.5-.23-.5-.5v-27 0c0-.28.22-.5.5-.5h31v0c.27 0 .5.22.5.5v27 0c0 .27-.23.5-.5.5Z" fill="#FFF" /></svg>