<svg xmlns="http://www.w3.org/2000/svg" viewBox="0 0 64 64"><path fill-rule="evenodd" d="M58.98 33.29l-7.51 1.87 0-.001c-.72.17-1.16.9-.98 1.62 .07.28.22.53.45.71l2.35 1.92v0c.57.46.66 1.31.19 1.88 -.29.34-.73.53-1.18.48l-3.03-.31h-.001c-.74-.08-1.4.46-1.48 1.19 -.03.28.03.57.18.82l3.97 6.63v-.001c.38.63.17 1.45-.47 1.84 -.43.25-.96.25-1.38 0l-6.64-3.98v0c-.64-.39-1.46-.18-1.85.45 -.15.24-.22.53-.19.82l.3 3.02h0c.07.73-.47 1.39-1.2 1.47 -.45.04-.9-.14-1.18-.49l-1.93-2.36v0c-.47-.58-1.32-.66-1.89-.2 -.23.18-.39.43-.46.71l-1.88 7.5v0c-.18.71-.91 1.15-1.63.97 -.49-.13-.86-.5-.98-.98l-1.88-7.503v0c-.18-.72-.91-1.16-1.63-.98 -.29.07-.54.22-.72.45l-1.93 2.35v0c-.47.57-1.32.65-1.89.19 -.35-.29-.54-.73-.49-1.18l.3-3.03 0 0c.07-.74-.47-1.4-1.2-1.47 -.29-.03-.58.03-.83.18l-6.64 3.97h0c-.64.38-1.46.17-1.84-.47 -.26-.43-.26-.96 0-1.38l3.97-6.64h-.001c.38-.64.17-1.46-.46-1.85 -.25-.15-.54-.22-.83-.19l-3.03.3h0c-.74.07-1.4-.47-1.48-1.2 -.05-.45.13-.9.48-1.18l2.35-1.93v0c.57-.47.65-1.32.19-1.89 -.19-.23-.44-.39-.72-.46l-7.51-1.88H4.76c-.72-.18-1.16-.91-.98-1.63 .12-.49.49-.86.97-.98l7.5-1.88v0c.71-.18 1.15-.91.97-1.63 -.08-.29-.23-.54-.46-.72L10.4 24.3H10.4c-.58-.47-.67-1.32-.2-1.89 .28-.35.72-.54 1.17-.49l3.02.3v0c.73.07 1.39-.47 1.47-1.2 .02-.29-.04-.58-.19-.83l-3.98-6.64v0c-.39-.64-.18-1.46.46-1.84 .42-.26.95-.26 1.37 0l6.63 3.97v0c.63.38 1.45.17 1.84-.46 .14-.25.21-.54.18-.83l-.31-3.03h0c-.08-.74.46-1.4 1.19-1.48 .44-.05.89.13 1.17.48l1.92 2.35 -.001 0c.46.57 1.31.65 1.88.19 .22-.19.38-.44.45-.72l1.87-7.51v0c.17-.72.9-1.16 1.62-.98 .48.12.85.49.97.97l1.87 7.503 -.001 0c.17.71.9 1.15 1.62.97 .28-.08.53-.23.71-.46l1.92-2.36v0c.46-.58 1.31-.66 1.88-.2 .34.28.53.72.48 1.17l-.31 3.02v0c-.08.73.46 1.39 1.19 1.46 .28.02.57-.04.82-.19l6.631-3.98v0c.63-.39 1.45-.18 1.84.46 .25.42.25.95 0 1.37l-3.98 6.63v0c-.39.63-.18 1.45.46 1.84 .24.14.53.21.82.18l3.02-.31v0c.73-.08 1.39.46 1.46 1.19 .04.44-.14.89-.49 1.17l-2.36 1.92 0-.001c-.58.46-.66 1.31-.2 1.88 .18.22.43.38.71.45l7.5 1.87v0c.71.17 1.15.9.97 1.62 -.13.48-.5.85-.98.97Zm-26.99-16.3h0c-8.29 0-15 6.71-15 15 0 8.28 6.71 14.99 15 14.99 8.28-.01 14.99-6.72 14.99-15v0c-.01-8.29-6.72-15.01-15.01-15.01Zm0 28v0c-7.18-.01-13-5.83-13-13 0-7.18 5.82-13 13-13 7.17 0 13 5.82 13 13 -.001 0-.01 0-.01 0v0c0 7.17-5.83 13-13 13Z" fill="#FFF" /></svg>