<svg xmlns="http://www.w3.org/2000/svg" viewBox="0 0 64 64"><path fill-rule="evenodd" d="M53.97 42.95v0c.01.56-.43 1.02-1 1.03 -.11 0-.21-.02-.3-.04v0c-1.36-.36-2.62-1.03-3.67-1.95 -4.46 3.72-9.16 1.67-11.03-2.01v-.001c-1.78 1.2-3.85 1.9-5.99 2v0c-2.16-.11-4.24-.8-6.02-2.01 -6.21 6.61-8.24 3-13 3v0c-.54-.06-.95-.5-.96-1.04 -.22-4.41-6.49-6.17-3.05-12.96 0 0-.35-1.12-2.54-2.45v0c-.47-.3-.61-.92-.32-1.38 .04-.07.09-.14.15-.19 3.54-3.45 2.93-8.99 9.69-8.99 .08-5.24 5.97-8.8 12-6 3.4-6.37 14.94-4.76 17 1.99 4.17 0 4.38 3.55 8.51 3.77h-.001c.53.02.96.46.96 1 .07 4.33 4.37 4.89 1.52 11.2 5.39 7.84-2.09 8.53-2.06 14.93Zm-25.99.98h0c-.01-.28.22-.51.49-.51 .04-.01.09 0 .13.01v0c1.09.35 2.23.54 3.38.55v0c1.14-.02 2.27-.2 3.35-.56v0c.26-.08.54.07.61.34 .01.04.01.09.01.13 .11 7.08 1.47 9.94 1.93 11.03v0c.15.38-.05.82-.44.97 -.1.03-.21.05-.32.04H26.71v0c-.42.02-.78-.3-.8-.72 -.01-.11.01-.22.04-.32 .46-1.1 1.82-3.96 1.93-11.04Z" fill="#FFF" /></svg>