<svg xmlns="http://www.w3.org/2000/svg" viewBox="0 0 64 64"><path fill-rule="evenodd" d="M52 52H12v0c-2.21 0-4-1.8-4-4V33.53v0c-.01-.85.67-1.54 1.52-1.54 .3-.01.6.09.86.26h-.001c1.65 1.13 3.61 1.73 5.61 1.73h12v2.08c0 .86 1.59 1.91 4 1.91 2.4 0 4-1.06 4-1.92v-2.09h12v0c2 0 3.96-.61 5.61-1.74h-.001c.69-.48 1.64-.29 2.12.4 .17.25.26.55.26.86v14.46 0c0 2.2-1.8 4-4 4Zm-4-20H36v-2 0c0-.56-.45-1-1-1h-6v0c-.56 0-1 .44-1 1v2H16v0c-4.42 0-8-3.59-8-8v-4 0c0-2.21 1.79-4 4-4h9v-3 0c0-2.77 2.23-5 5-5h12v0c2.76 0 5 2.23 5 5v3h9v0c2.2 0 4 1.79 4 4v4 0c0 4.41-3.59 8-8 8Zm-9-19v0c0-.56-.45-1-1-1H26v0c-.56 0-1 .44-1 1v3h14Z" fill="#FFF" /></svg>