<svg xmlns="http://www.w3.org/2000/svg" viewBox="0 0 64 64"><path fill="#fff" fill-rule="evenodd" d="M10.02 18v0c-1.11 0-2-.9-2-2 0-1.11.89-2 2-2h8v0c1.1 0 2 .89 2 2 0 1.1-.9 2-2 2Zm14-4h28v0c2.2 0 4 1.79 4 4v28 0c0 2.2-1.8 4-4 4h-40v0c-2.21 0-4-1.8-4-4V22v0c0-1.11.89-2 2-2h10v0c1.1 0 2-.9 2-2v-2 0c-.01-1.11.89-2 2-2 0-.001 0 0 0 0Zm13 30v0c6.07 0 11-4.93 11-11 0-6.08-4.93-11-11-11 -6.08 0-11 4.92-11 11v0c-.01 6.07 4.92 11 10.99 11 0 0 0 0 0 0Zm0-20v0c4.97 0 9 4.02 9 9 0 4.97-4.03 9-9 9 -4.98 0-9-4.03-9-9v0c-.001-4.98 4.02-9 9-9 0 0 0 0 0 0Z"/></svg>