<svg xmlns="http://www.w3.org/2000/svg" viewBox="0 0 64 64"><path fill-rule="evenodd" d="M17.02 44.02v0 0c1.12-.01 2.17.56 2.8 1.49l1.37 2.06v0c.18.27.49.44.83.44h19.99v0c.33-.01.64-.17.83-.45l1.37-2.06v-.001c.62-.94 1.67-1.5 2.8-1.5v0c1.65 0 3-1.35 3-3v-25.01c0-8.09-10.38-10-18-10 -7.62 0-18 1.91-18 10v25 0c-.01 1.65 1.34 2.99 2.99 3Zm26-4.01v0c-1.66 0-3-1.35-3-3 0-1.66 1.34-3 3-3 1.65 0 3 1.34 3 3v0c-.01 1.65-1.35 2.99-3 2.99Zm3-23v8 0c0 .55-.45 1-1 1h-10v0c-.56 0-1-.45-1-1v-8 0c0-.56.44-1 1-1h10v0c.55 0 1 .44 1 1Zm-20-8h12v0c1.1 0 2 .89 2 2 0 1.1-.9 2-2 2h-12v0c-1.11 0-2-.9-2-2 0-1.11.89-2 2-2Zm-8 8v0c0-.56.44-1 1-1h10v0c.55 0 1 .44 1 1v8 0c0 .55-.45 1-1 1h-10v0c-.56 0-1-.45-1-1Zm3 16.99v0c1.65 0 3 1.34 3 3 0 1.65-1.35 3-3 3 -1.66 0-3-1.35-3-3v0c0-1.66 1.34-3 3-3Zm21.81 16.44l0-.001c-.19-.28-.5-.45-.83-.45h-1v0c-.33 0-.63.15-.81.41v0c-.19.26-.24.59-.14.9l.22.68H23.76l.22-.69v0c.17-.53-.11-1.09-.63-1.27 -.11-.04-.21-.06-.32-.06h-1l0 0c-.34 0-.65.16-.83.44l-3.99 6v0c-.31.45-.19 1.08.27 1.38 .16.1.35.16.55.16h2.99v0c.42-.01.81-.28.94-.69l.43-1.32h19.15l.43 1.31h-.001c.13.4.51.68.94.68h2.99v0c.55-.01.99-.46.99-1.01 -.01-.2-.06-.39-.17-.56Z" fill="#FFF" /></svg>